<svg width="18" height="19" viewBox="0 0 18 19" fill="none" xmlns="http://www.w3.org/2000/svg">
<g clip-path="url(#clip0)">
<path d="M1.73958 0.870117H16.2604C16.944 0.870117 17.5 1.43356 17.5 2.1262V3.9206C17.5 4.61324 16.944 5.17668 16.2604 5.17668H1.73958C1.05604 5.17668 0.5 4.61324 0.5 3.9206V2.1262C0.5 1.43356 1.05604 0.870117 1.73958 0.870117Z" fill="white" fill-opacity="0.4"/>
<path d="M16.2604 18.0965H10.9479C10.2644 18.0965 9.70833 17.533 9.70833 16.8404V7.86839C9.70833 7.17575 10.2644 6.6123 10.9479 6.6123H16.2604C16.944 6.6123 17.5 7.17575 17.5 7.86839V16.8404C17.5 17.533 16.944 18.0965 16.2604 18.0965Z" fill="white" fill-opacity="0.4"/>
<path d="M1.73955 6.6123H7.05204C7.73558 6.6123 8.29163 7.17575 8.29163 7.86839V10.3805C8.29163 11.0732 7.73558 11.6366 7.05204 11.6366H1.73955C1.05601 11.6366 0.499968 11.0732 0.499968 10.3805V7.86839C0.499968 7.17575 1.05601 6.6123 1.73955 6.6123Z" fill="white" fill-opacity="0.4"/>
<path d="M1.73955 13.0723H7.05204C7.73558 13.0723 8.29163 13.6357 8.29163 14.3283V16.8405C8.29163 17.5331 7.73558 18.0966 7.05204 18.0966H1.73955C1.05601 18.0966 0.499968 17.5331 0.499968 16.8405V14.3283C0.499968 13.6357 1.05601 13.0723 1.73955 13.0723Z" fill="white" fill-opacity="0.4"/>
</g>
<defs>
<clipPath id="clip0">
<rect width="17" height="17.2263" fill="white" transform="matrix(-1 0 0 1 17.5 0.870117)"/>
</clipPath>
</defs>
</svg>
