<svg width="23" height="23" viewBox="0 0 23 23" fill="none" xmlns="http://www.w3.org/2000/svg">
<g clip-path="url(#clip0)">
<path d="M14.924 3.35429H12.397V1.98501C12.397 1.22876 11.7839 0.615723 11.0277 0.615723C10.2714 0.615723 9.65838 1.22876 9.65838 1.98501V3.35429H7.13135V6.54932H14.924V3.35429Z" fill="white" fill-opacity="0.4"/>
<path d="M16.2127 3.35449V7.83858H5.84194V3.35449H3.49512V22.6159H18.5595V3.35449H16.2127ZM9.99474 10.3304H15.3399V11.6195H9.99474V10.3304ZM5.86974 10.3304H6.64318V9.55699H7.93224V10.3304H8.70568V11.6195H7.93224V12.3929H6.64318V11.6195H5.86974V10.3304ZM5.86974 13.682H14.959V14.9711H5.86974V13.682ZM5.86974 16.2601H11.9404V17.5492H5.86974V16.2601ZM13.6054 20.1273H5.86974V18.8382H13.6054V20.1273ZM16.1836 20.1273H14.8945V18.8382H16.1836V20.1273Z" fill="white" fill-opacity="0.4"/>
</g>
<defs>
<clipPath id="clip0">
<rect width="22" height="22" fill="white" transform="translate(0.0273438 0.615723)"/>
</clipPath>
</defs>
</svg>
