<svg width="32" height="25" viewBox="0 0 32 25" fill="none" xmlns="http://www.w3.org/2000/svg">
<path d="M6.09668 9.58063H6.96765V10.4516H6.09668V9.58063Z" fill="#C3CDD3"/>
<path d="M8.70996 9.58063H9.58093V10.4516H8.70996V9.58063Z" fill="#C3CDD3"/>
<path d="M24.8226 0H2.17742C1.89148 0 1.60833 0.0563206 1.34416 0.165746C1.07998 0.275172 0.839943 0.435559 0.637751 0.637751C0.229406 1.0461 0 1.59993 0 2.17742V18.7258C0 19.3033 0.229406 19.8571 0.637751 20.2655C0.839943 20.4677 1.07998 20.6281 1.34416 20.7375C1.60833 20.8469 1.89148 20.9032 2.17742 20.9032H24.8226C25.4001 20.9032 25.9539 20.6738 26.3622 20.2655C26.7706 19.8571 27 19.3033 27 18.7258V2.17742C27 1.59993 26.7706 1.0461 26.3622 0.637751C25.9539 0.229406 25.4001 0 24.8226 0V0ZM26.129 18.7258C26.128 19.072 25.99 19.4037 25.7452 19.6485C25.5005 19.8932 25.1688 20.0312 24.8226 20.0323H2.17742C1.83124 20.0312 1.49954 19.8932 1.25476 19.6485C1.00998 19.4037 0.872002 19.072 0.870968 18.7258V3.48387H26.129V18.7258ZM26.129 2.6129H0.870968V2.17742C0.872002 1.83124 1.00998 1.49954 1.25476 1.25476C1.49954 1.00998 1.83124 0.872002 2.17742 0.870968H24.8226C25.1688 0.872002 25.5005 1.00998 25.7452 1.25476C25.99 1.49954 26.128 1.83124 26.129 2.17742V2.6129Z" fill="#C3CDD3"/>
<path d="M11.6931 15.0286L9.58096 14.0879V13.4652C9.98005 13.2328 10.3293 12.9239 10.6088 12.5562C10.8883 12.1885 11.0925 11.7693 11.2097 11.3226H11.3229C11.6694 11.3226 12.0017 11.185 12.2467 10.9399C12.4917 10.6949 12.6293 10.3626 12.6293 10.0161C12.6293 9.66966 12.4917 9.33735 12.2467 9.09235C12.0017 8.84734 11.6694 8.7097 11.3229 8.7097V7.83873C11.3229 6.91475 10.9558 6.02861 10.3025 5.37526C9.64914 4.72191 8.76301 4.35486 7.83903 4.35486C6.91505 4.35486 6.02891 4.72191 5.37556 5.37526C4.7222 6.02861 4.35515 6.91475 4.35515 7.83873V8.7097C4.00866 8.7097 3.67636 8.84734 3.43135 9.09235C3.18635 9.33735 3.0487 9.66966 3.0487 10.0161C3.0487 10.3626 3.18635 10.6949 3.43135 10.9399C3.67636 11.185 4.00866 11.3226 4.35515 11.3226H4.46838C4.58555 11.7693 4.78973 12.1885 5.06922 12.5562C5.34871 12.9239 5.698 13.2328 6.09709 13.4652V14.0879L3.98499 15.0286C3.44717 15.2683 2.9903 15.6587 2.66958 16.1525C2.34886 16.6463 2.17803 17.2225 2.17773 17.8113V18.7258C2.17773 18.8413 2.22362 18.9521 2.30528 19.0338C2.38695 19.1154 2.49772 19.1613 2.61322 19.1613H13.0648C13.1803 19.1613 13.2911 19.1154 13.3728 19.0338C13.4544 18.9521 13.5003 18.8413 13.5003 18.7258V17.8113C13.5 17.2225 13.3292 16.6463 13.0085 16.1525C12.6878 15.6587 12.2309 15.2683 11.6931 15.0286V15.0286ZM11.3229 9.58066C11.4384 9.58066 11.5492 9.62655 11.6308 9.70821C11.7125 9.78988 11.7584 9.90065 11.7584 10.0161C11.7584 10.1316 11.7125 10.2424 11.6308 10.3241C11.5492 10.4058 11.4384 10.4516 11.3229 10.4516V9.58066ZM4.35515 10.4516C4.23966 10.4516 4.12889 10.4058 4.04722 10.3241C3.96555 10.2424 3.91967 10.1316 3.91967 10.0161C3.91967 9.90065 3.96555 9.78988 4.04722 9.70821C4.12889 9.62655 4.23966 9.58066 4.35515 9.58066V10.4516ZM9.81177 15.1418L9.70725 15.5511L9.01919 15.3203L8.85806 15.0024L9.15419 14.8544L9.81177 15.1418ZM5.22612 7.83873C5.22612 7.14574 5.50141 6.48114 5.99142 5.99113C6.48144 5.50111 7.14604 5.22583 7.83903 5.22583C8.53201 5.22583 9.19661 5.50111 9.68663 5.99113C10.1766 6.48114 10.4519 7.14574 10.4519 7.83873V8.26115C10.2861 8.23215 10.1321 8.15591 10.0085 8.04159C9.88495 7.92727 9.79697 7.77972 9.75515 7.61663L9.5679 6.86325C9.54209 6.76028 9.47958 6.67029 9.39209 6.61018C9.3046 6.55007 9.19818 6.52398 9.09281 6.53682C8.98744 6.54965 8.89039 6.60053 8.8199 6.67989C8.7494 6.75925 8.71032 6.86162 8.70999 6.96776C8.70896 7.31394 8.57098 7.64564 8.3262 7.89042C8.08142 8.1352 7.74972 8.27318 7.40354 8.27421H5.22612V7.83873ZM5.22612 10.4516V9.14518H7.40354C7.7331 9.14474 8.05828 9.06968 8.35468 8.92562C8.65109 8.78157 8.91103 8.57226 9.11499 8.31341C9.2576 8.5459 9.45294 8.74156 9.6852 8.88454C9.91746 9.02753 10.1801 9.11384 10.4519 9.13647V10.4516C10.4519 11.1446 10.1766 11.8092 9.68663 12.2992C9.19661 12.7892 8.53201 13.0645 7.83903 13.0645C7.14604 13.0645 6.48144 12.7892 5.99142 12.2992C5.50141 11.8092 5.22612 11.1446 5.22612 10.4516V10.4516ZM6.52386 14.8544L6.81999 15.0024L6.65886 15.3203L5.9708 15.5511L5.86628 15.1418L6.52386 14.8544ZM6.20596 18.2903H3.0487V17.8113C3.04865 17.39 3.17081 16.9778 3.40039 16.6245C3.62996 16.2713 3.95708 15.9922 4.34209 15.8211L5.06064 15.5032L5.23919 16.2174C5.25388 16.276 5.28039 16.3309 5.31709 16.3788C5.35378 16.4268 5.39989 16.4667 5.45257 16.4961C5.51677 16.5308 5.58865 16.5488 5.66161 16.5484C5.70884 16.5476 5.75572 16.5402 5.80096 16.5266L6.8287 16.1826L6.20596 18.2903ZM7.11612 18.2903L7.53419 16.8576C7.61504 16.9384 7.72469 16.9839 7.83903 16.9839C7.95336 16.9839 8.06301 16.9384 8.14386 16.8576L8.56193 18.2903H7.11612ZM7.49935 15.5903L7.67354 15.242H8.00451L8.1787 15.5903L7.83903 15.9344L7.49935 15.5903ZM8.70999 14.101L8.16999 14.371H7.50806L6.96806 14.101V13.8223C7.53889 13.9733 8.13916 13.9733 8.70999 13.8223V14.101ZM12.6293 18.2903H9.47209L8.84935 16.1826L9.87709 16.5266C9.92233 16.5402 9.96922 16.5476 10.0164 16.5484C10.0894 16.5488 10.1613 16.5308 10.2255 16.4961C10.2782 16.4667 10.3243 16.4268 10.361 16.3788C10.3977 16.3309 10.4242 16.276 10.4389 16.2174L10.6174 15.5032L11.336 15.8211C11.721 15.9922 12.0481 16.2713 12.2777 16.6245C12.5072 16.9778 12.6294 17.39 12.6293 17.8113V18.2903Z" fill="#C3CDD3"/>
<path d="M14.3711 4.79034H16.113V5.66131H14.3711V4.79034Z" fill="#C3CDD3"/>
<path d="M17.8555 4.79034H18.7264V5.66131H17.8555V4.79034Z" fill="#C3CDD3"/>
<path d="M19.5967 4.79034H20.4676V5.66131H19.5967V4.79034Z" fill="#C3CDD3"/>
<path d="M21.3379 4.79034H22.2089V5.66131H21.3379V4.79034Z" fill="#C3CDD3"/>
<path d="M23.0811 4.79034H23.952V5.66131H23.0811V4.79034Z" fill="#C3CDD3"/>
<path d="M14.3711 10.4516H16.984V11.3226H14.3711V10.4516Z" fill="#C3CDD3"/>
<path d="M17.8555 8.70966H19.5974V9.58062H17.8555V8.70966Z" fill="#C3CDD3"/>
<path d="M20.4678 8.70966H23.9516V9.58062H20.4678V8.70966Z" fill="#C3CDD3"/>
<path d="M17.8555 10.4516H23.9522V11.3226H17.8555V10.4516Z" fill="#C3CDD3"/>
<path d="M17.8555 13.0645H18.7264V13.9355H17.8555V13.0645Z" fill="#C3CDD3"/>
<path d="M19.5967 13.0645H20.4676V13.9355H19.5967V13.0645Z" fill="#C3CDD3"/>
<path d="M21.3379 13.0645H22.2089V13.9355H21.3379V13.0645Z" fill="#C3CDD3"/>
<path d="M23.0811 13.0645H23.952V13.9355H23.0811V13.0645Z" fill="#C3CDD3"/>
<path d="M17.8555 17.8549H19.5974V18.7258H17.8555V17.8549Z" fill="#C3CDD3"/>
<path d="M20.4678 17.8549H22.2097V18.7258H20.4678V17.8549Z" fill="#C3CDD3"/>
<path d="M23.0811 17.8549H23.952V18.7258H23.0811V17.8549Z" fill="#C3CDD3"/>
<rect x="21.5" y="14.5" width="10" height="10" rx="5" fill="white"/>
<path d="M26.5 14.5C23.7429 14.5 21.5 16.7429 21.5 19.5C21.5 22.2571 23.7429 24.5 26.5 24.5C29.2571 24.5 31.5 22.2571 31.5 19.5C31.5 16.7429 29.2571 14.5 26.5 14.5ZM28.6875 20H27V21.6875C27 21.9175 26.73 22.1041 26.5 22.1041C26.27 22.1041 26 21.9175 26 21.6875V20H24.3125C24.0825 20 23.8959 19.73 23.8959 19.5C23.8959 19.27 24.0825 19 24.3125 19H26V17.3125C26 17.0825 26.27 16.8959 26.5 16.8959C26.73 16.8959 27 17.0825 27 17.3125V19H28.6875C28.9175 19 29.1041 19.27 29.1041 19.5C29.1041 19.73 28.9175 20 28.6875 20Z" fill="#0984DA"/>
</svg>
