<svg width="32" height="24" viewBox="0 0 32 24" fill="none" xmlns="http://www.w3.org/2000/svg">
<path d="M21.8584 6.31011H20.1585L20.6707 0.429734C20.6716 0.419082 20.6718 0.408588 20.6719 0.398094C20.6719 0.397197 20.672 0.396353 20.672 0.395457C20.672 0.395298 20.672 0.395193 20.672 0.395035C20.672 0.234986 20.5754 0.0939205 20.4335 0.0325902C20.4323 0.0320628 20.4311 0.0314301 20.4299 0.0309028C20.4211 0.0272114 20.412 0.0240471 20.4028 0.0209885C20.3994 0.0198811 20.3961 0.0185099 20.3927 0.0174552C20.3852 0.0151876 20.3775 0.0133947 20.3698 0.011549C20.3645 0.0102833 20.3593 0.00875414 20.3539 0.00769945C20.3472 0.00638108 20.3402 0.00553746 20.3333 0.0045355C20.3269 0.00358628 20.3206 0.00247869 20.3141 0.00189861C20.313 0.00179314 20.312 0.00158203 20.3109 0.00147656C20.3039 0.000843747 20.2971 0.000949248 20.2902 0.000685575C20.2855 0.000527372 20.281 0 20.2763 0H20.2714C20.271 0 20.2705 0 20.2702 0H12.1822C11.9639 0 11.7867 0.177188 11.7867 0.395509C11.7867 0.613303 11.9639 0.791019 12.1822 0.791019H19.8452L19.0581 9.82841C19.058 9.82909 19.058 9.82978 19.0579 9.83046L18.8593 12.1108H5.1162L5.34607 9.73781H7.96282C8.1813 9.73781 8.35833 9.56073 8.35833 9.3423C8.35833 9.12387 8.1813 8.94679 7.96282 8.94679H5.42275L5.90812 3.93727H10.0728C10.2913 3.93727 10.4683 3.76019 10.4683 3.54176C10.4683 3.32333 10.2913 3.14625 10.0728 3.14625H5.9848L6.21303 0.791019H10.6002C10.818 0.791019 10.9957 0.613303 10.9957 0.395509C10.9957 0.177188 10.818 0 10.6002 0H5.85407C5.85386 0 5.8537 5.27056e-05 5.85349 5.27056e-05C5.6677 -2.89705e-08 5.50655 0.130782 5.46757 0.312084C5.46731 0.313402 5.46684 0.314667 5.46657 0.315986C5.46457 0.325847 5.46325 0.335919 5.46193 0.346045C5.46156 0.349261 5.46088 0.35232 5.46056 0.355537C5.46051 0.35617 5.46035 0.356749 5.4603 0.357382L5.19008 3.14625H0.395509C0.17703 3.14625 0 3.32333 0 3.54176C0 3.76019 0.17703 3.93727 0.395509 3.93727H5.11341L4.62804 8.94679H3.21692C2.99844 8.94679 2.82141 9.12387 2.82141 9.3423C2.82141 9.56073 2.99844 9.73781 3.21692 9.73781H4.55142L4.28711 12.4653C4.28706 12.4657 4.28706 12.4661 4.28701 12.4665L3.87836 16.6842C3.87831 16.6846 3.87826 16.6852 3.87821 16.6856L3.87805 16.6871C3.87752 16.6926 3.87757 16.698 3.87726 16.7035C3.87689 16.7107 3.87615 16.7179 3.87615 16.7252C3.87615 16.7256 3.8762 16.7259 3.8762 16.7262C3.8762 16.7364 3.87694 16.7464 3.87768 16.7565C3.878 16.7597 3.87789 16.763 3.87826 16.7661C3.87931 16.7763 3.88105 16.7864 3.8829 16.7964C3.88343 16.7994 3.88369 16.8024 3.88427 16.8053C3.8858 16.8129 3.88796 16.8202 3.88997 16.8277C3.89134 16.8329 3.89245 16.8382 3.89403 16.8433C3.8945 16.8447 3.89513 16.8461 3.89556 16.8476C3.9147 16.9064 3.94718 16.9593 3.98958 17.0024C3.99037 17.0032 3.99101 17.0041 3.9918 17.0048C3.99602 17.0091 4.0006 17.0129 4.00503 17.0169C4.0323 17.0419 4.06309 17.0631 4.09679 17.0797C4.10381 17.0832 4.11071 17.0868 4.11789 17.0898C4.12005 17.0907 4.12237 17.0914 4.12458 17.0922C4.1345 17.0962 4.14446 17.1 4.15475 17.1032C4.1557 17.1035 4.15659 17.1036 4.15754 17.1039C4.16925 17.1074 4.18106 17.1105 4.19314 17.113C4.19472 17.1133 4.19635 17.1134 4.19788 17.1137C4.20938 17.1159 4.22093 17.1177 4.23269 17.1189C4.23295 17.1189 4.23316 17.1189 4.23343 17.119C4.2464 17.1202 4.25927 17.1209 4.27203 17.1209C4.27219 17.1209 4.2724 17.1208 4.27261 17.1208H6.03331C6.22774 18.5949 7.49153 19.7366 9.01793 19.7366C10.5442 19.7366 11.808 18.5949 12.0024 17.1208H18.3464C18.5408 18.5949 19.8046 19.7366 21.3309 19.7366C22.8572 19.7366 24.1211 18.5949 24.3156 17.1208H26.0767C26.077 17.1208 26.0773 17.1209 26.0776 17.1209C26.0908 17.1209 26.1037 17.1201 26.1166 17.1188C26.1189 17.1186 26.1211 17.1181 26.1234 17.1179C26.1337 17.1166 26.144 17.1152 26.154 17.1132C26.1583 17.1124 26.1625 17.1112 26.1667 17.1102C26.1745 17.1084 26.1823 17.1065 26.1899 17.1043C26.1951 17.1027 26.2001 17.1009 26.2051 17.0992C26.2116 17.097 26.2181 17.0947 26.2245 17.0921C26.23 17.0899 26.2352 17.0875 26.2405 17.0852C26.2463 17.0825 26.2521 17.0797 26.2578 17.0768C26.2631 17.0741 26.2683 17.0712 26.2735 17.0683C26.2789 17.0651 26.2843 17.0619 26.2896 17.0585C26.2946 17.0553 26.2995 17.0521 26.3043 17.0487C26.3097 17.045 26.3148 17.041 26.32 17.037C26.3243 17.0336 26.3287 17.0302 26.3329 17.0266C26.3383 17.022 26.3435 17.0172 26.3486 17.0123C26.3522 17.0089 26.356 17.0055 26.3594 17.0019C26.3649 16.9964 26.3701 16.9904 26.3754 16.9845C26.3782 16.9813 26.3811 16.9782 26.3837 16.9749C26.3895 16.9677 26.3948 16.9603 26.4001 16.9529C26.4019 16.9503 26.4039 16.9479 26.4056 16.9453C26.4121 16.9356 26.4181 16.9257 26.4237 16.9155C26.4241 16.9148 26.4246 16.9142 26.4248 16.9136C26.4308 16.9026 26.4363 16.8914 26.4412 16.8798C26.4425 16.8764 26.4436 16.873 26.4449 16.8697C26.4481 16.8615 26.4513 16.8533 26.454 16.8448C26.4557 16.8394 26.457 16.8337 26.4585 16.8282C26.4603 16.8216 26.4621 16.8151 26.4636 16.8084C26.4649 16.8024 26.4657 16.7963 26.4667 16.7902C26.4676 16.7849 26.4688 16.7797 26.4695 16.7742C26.4863 16.6399 26.796 14.1551 26.9343 12.5484C26.9345 12.5468 26.9345 12.5452 26.9347 12.5437C26.9745 12.0805 27 11.6905 27 11.4517C27 8.61667 24.6935 6.31011 21.8584 6.31011ZM20.0896 7.10124H21.7077L21.501 9.47408H19.8829L20.0896 7.10124ZM9.01804 18.9455C7.7937 18.9455 6.79765 17.9495 6.79765 16.7252C6.79765 15.5009 7.79375 14.5049 9.01804 14.5049C10.2423 14.5049 11.2384 15.5009 11.2384 16.7252C11.2384 17.9495 10.2423 18.9455 9.01804 18.9455ZM21.3309 18.9455C20.1066 18.9455 19.1106 17.9495 19.1106 16.7252C19.1106 15.5009 20.1067 14.5049 21.3309 14.5049C22.5553 14.5049 23.5513 15.5009 23.5513 16.7252C23.5513 17.9495 22.5553 18.9455 21.3309 18.9455ZM25.7273 16.3295H24.3157C24.1213 14.8553 22.8575 13.7136 21.331 13.7136C19.8047 13.7136 18.5408 14.8554 18.3465 16.3295H12.0026C11.8082 14.8553 10.5444 13.7136 9.01804 13.7136C7.49163 13.7136 6.22774 14.8554 6.03336 16.3295H4.70741L5.03958 12.9016H19.2218V12.9018C19.222 12.9018 19.2221 12.9018 19.2223 12.9018C19.2356 12.9018 19.2487 12.901 19.2617 12.8997C19.2641 12.8995 19.2665 12.899 19.2689 12.8987C19.2792 12.8975 19.2895 12.896 19.2996 12.894C19.304 12.8931 19.3083 12.8919 19.3126 12.8908C19.3205 12.8889 19.3284 12.8871 19.3361 12.8847C19.3414 12.8832 19.3464 12.8813 19.3515 12.8795C19.3582 12.8772 19.3648 12.8749 19.3713 12.8722C19.3768 12.87 19.3821 12.8674 19.3875 12.8649C19.3934 12.8622 19.3992 12.8595 19.4048 12.8566C19.4102 12.8537 19.4155 12.8507 19.4208 12.8476C19.4263 12.8445 19.4316 12.8412 19.4369 12.8379C19.442 12.8345 19.4469 12.8311 19.4518 12.8276C19.457 12.8239 19.4621 12.8201 19.4671 12.8161C19.4717 12.8125 19.4761 12.8088 19.4806 12.8049C19.4856 12.8006 19.4905 12.7962 19.4952 12.7916C19.4992 12.7877 19.5033 12.7838 19.5072 12.7797C19.5119 12.7747 19.5165 12.7696 19.521 12.7644C19.5246 12.7603 19.528 12.7562 19.5314 12.752C19.5358 12.7464 19.54 12.7407 19.5441 12.735C19.5472 12.7307 19.5502 12.7263 19.5531 12.7219C19.557 12.7159 19.5607 12.7098 19.5642 12.7036C19.5669 12.699 19.5696 12.6943 19.5721 12.6896C19.5754 12.6834 19.5782 12.677 19.5812 12.6706C19.5836 12.6655 19.5859 12.6605 19.5881 12.6552C19.5906 12.649 19.5928 12.6426 19.5951 12.6363C19.597 12.6306 19.5991 12.625 19.6008 12.6192C19.6026 12.6131 19.604 12.6068 19.6056 12.6006C19.6071 12.5943 19.6088 12.5881 19.61 12.5817C19.6112 12.5755 19.6119 12.5691 19.6129 12.5628C19.6138 12.5563 19.6149 12.5498 19.6156 12.5432C19.6157 12.5422 19.6159 12.5413 19.6159 12.5404L19.8142 10.2649H21.8583C23.0701 10.2649 23.6166 10.8927 24.1952 11.5575C24.6726 12.106 25.2055 12.718 26.1115 12.8673C25.9965 14.0839 25.8105 15.6457 25.7273 16.3295ZM26.1791 12.0747C25.5914 11.9549 25.2298 11.5417 24.7917 11.0384C24.2439 10.409 23.575 9.64094 22.2929 9.49782L22.4975 7.14859C24.5945 7.45873 26.209 9.27005 26.209 11.4518C26.209 11.6001 26.1979 11.8154 26.1791 12.0747Z" fill="#C3CDD1"/>
<path d="M9.01758 15.275C8.21797 15.275 7.56738 15.9255 7.56738 16.7252C7.56738 17.5248 8.21797 18.1754 9.01758 18.1754C9.8172 18.1754 10.4678 17.5248 10.4678 16.7252C10.4678 15.9255 9.8172 15.275 9.01758 15.275ZM9.01758 17.3843C8.65408 17.3843 8.3584 17.0887 8.3584 16.7252C8.3584 16.3617 8.65408 16.066 9.01758 16.066C9.38108 16.066 9.67677 16.3617 9.67677 16.7252C9.67677 17.0887 9.38103 17.3843 9.01758 17.3843Z" fill="#C3CDD1"/>
<path d="M21.3311 15.275C20.5314 15.275 19.8809 15.9255 19.8809 16.7252C19.8809 17.5248 20.5314 18.1754 21.3311 18.1754C22.1307 18.1754 22.7813 17.5248 22.7813 16.7252C22.7813 15.9255 22.1307 15.275 21.3311 15.275ZM21.3311 17.3843C20.9676 17.3843 20.6719 17.0887 20.6719 16.7252C20.6719 16.3617 20.9676 16.066 21.3311 16.066C21.6946 16.066 21.9902 16.3617 21.9902 16.7252C21.9902 17.0887 21.6946 17.3843 21.3311 17.3843Z" fill="#C3CDD1"/>
<path d="M3.74509 6.31024H1.81153C1.59305 6.31024 1.41602 6.48732 1.41602 6.70575C1.41602 6.92418 1.59305 7.10126 1.81153 7.10126H3.74509C3.96357 7.10126 4.1406 6.92418 4.1406 6.70575C4.1406 6.48732 3.96357 6.31024 3.74509 6.31024Z" fill="#C3CDD1"/>
<rect x="21.5" y="13.5" width="10" height="10" rx="5" fill="white"/>
<path d="M26.5 13.5C23.7429 13.5 21.5 15.7429 21.5 18.5C21.5 21.2571 23.7429 23.5 26.5 23.5C29.2571 23.5 31.5 21.2571 31.5 18.5C31.5 15.7429 29.2571 13.5 26.5 13.5ZM28.6875 19H27V20.6875C27 20.9175 26.73 21.1041 26.5 21.1041C26.27 21.1041 26 20.9175 26 20.6875V19H24.3125C24.0825 19 23.8959 18.73 23.8959 18.5C23.8959 18.27 24.0825 18 24.3125 18H26V16.3125C26 16.0825 26.27 15.8959 26.5 15.8959C26.73 15.8959 27 16.0825 27 16.3125V18H28.6875C28.9175 18 29.1041 18.27 29.1041 18.5C29.1041 18.73 28.9175 19 28.6875 19Z" fill="#0984DA"/>
</svg>
